<svg width="16" height="23" viewBox="0 0 16 23" fill="none" xmlns="http://www.w3.org/2000/svg">
<path d="M8.00222 11.2188C8.48407 11.2188 8.89583 11.0257 9.2375 10.6397C9.57917 10.2537 9.75 9.7896 9.75 9.2475C9.75 8.70542 9.57843 8.24219 9.23528 7.85781C8.89214 7.47344 8.47964 7.28125 7.99778 7.28125C7.51593 7.28125 7.10417 7.47427 6.7625 7.86032C6.42083 8.24634 6.25 8.7104 6.25 9.2525C6.25 9.79458 6.42158 10.2578 6.76472 10.6422C7.10786 11.0266 7.52036 11.2188 8.00222 11.2188ZM8 20.5281C10.2167 18.2594 11.8542 16.2016 12.9125 14.3547C13.9708 12.5078 14.5 10.8812 14.5 9.475C14.5 7.26644 13.8726 5.45805 12.6177 4.04983C11.3629 2.64161 9.82362 1.9375 8 1.9375C6.17638 1.9375 4.63715 2.64161 3.3823 4.04983C2.12743 5.45805 1.5 7.26644 1.5 9.475C1.5 10.8812 2.04167 12.5078 3.125 14.3547C4.20833 16.2016 5.83333 18.2594 8 20.5281ZM8 22.75C5.31667 20.1812 3.3125 17.7953 1.9875 15.5922C0.6625 13.3891 0 11.35 0 9.475C0 6.6625 0.804167 4.42188 2.4125 2.75312C4.02083 1.08438 5.88333 0.25 8 0.25C10.1167 0.25 11.9792 1.08438 13.5875 2.75312C15.1958 4.42188 16 6.6625 16 9.475C16 11.35 15.3375 13.3891 14.0125 15.5922C12.6875 17.7953 10.6833 20.1812 8 22.75Z" fill="#FB7922"/>
</svg>
