<svg width="23" height="23" viewBox="0 0 23 23" fill="none" xmlns="http://www.w3.org/2000/svg">
<path d="M15.7812 17.0487L17.0651 15.755L12.5284 11.155V5.37625H10.8165V11.845L15.7812 17.0487ZM11.5869 23C10.0271 23 8.5529 22.6981 7.16432 22.0944C5.77573 21.4906 4.56309 20.6665 3.52641 19.6219C2.48972 18.5773 1.67179 17.3554 1.07261 15.9563C0.473421 14.5571 0.173828 13.0717 0.173828 11.5C0.173828 9.92833 0.473421 8.44292 1.07261 7.04375C1.67179 5.64458 2.48972 4.42271 3.52641 3.37812C4.56309 2.33354 5.77573 1.50937 7.16432 0.905625C8.5529 0.301875 10.0271 0 11.5869 0C13.1467 0 14.6208 0.301875 16.0094 0.905625C17.398 1.50937 18.6106 2.33354 19.6473 3.37812C20.684 4.42271 21.502 5.64458 22.1011 7.04375C22.7003 8.44292 22.9999 9.92833 22.9999 11.5C22.9999 13.0717 22.7003 14.5571 22.1011 15.9563C21.502 17.3554 20.684 18.5773 19.6473 19.6219C18.6106 20.6665 17.398 21.4906 16.0094 22.0944C14.6208 22.6981 13.1467 23 11.5869 23ZM11.5869 21.275C14.2499 21.275 16.5325 20.3167 18.4347 18.4C20.3369 16.4833 21.288 14.1833 21.288 11.5C21.288 8.81667 20.3369 6.51667 18.4347 4.6C16.5325 2.68333 14.2499 1.725 11.5869 1.725C8.92383 1.725 6.64122 2.68333 4.73905 4.6C2.83687 6.51667 1.88578 8.81667 1.88578 11.5C1.88578 14.1833 2.83687 16.4833 4.73905 18.4C6.64122 20.3167 8.92383 21.275 11.5869 21.275Z" fill="#FB7922"/>
</svg>
